<svg width="134" height="40" viewBox="0 0 134 40" fill="none" xmlns="http://www.w3.org/2000/svg">
<path fill-rule="evenodd" clip-rule="evenodd" d="M63.6817 35.9994C63.6817 38.7496 65.9205 39.9995 68.657 39.9995C71.3936 39.9995 73.6324 38.7496 73.6324 35.9994V4.00005C73.6324 1.24989 71.3936 0 68.657 0C65.921 0 63.6817 1.2504 63.6817 4.00005C63.6817 32.4253 63.6817 30.6923 63.6817 35.9994ZM21.8899 35.9994C21.8899 38.7476 24.1287 39.9995 26.8653 39.9995C29.6018 39.9995 31.8406 38.7496 31.8406 35.9994V4.00005C31.8406 1.24989 29.6018 0 26.8653 0C24.1292 0 21.8899 1.25141 21.8899 4.00005V15.2592C21.8899 15.5971 22.0414 15.8879 22.3178 16.0806C22.5941 16.2733 22.9182 16.3143 23.2333 16.196C24.1317 15.8591 24.9914 15.462 25.8043 15.0103C26.368 14.6972 27.0354 14.7716 27.5176 15.2015C27.9988 15.6315 28.1513 16.288 27.9092 16.8874C25.9875 21.6442 21.3438 24.9993 15.9201 24.9993C10.4963 24.9993 5.85312 21.6447 3.93093 16.8874C3.68883 16.2875 3.84134 15.6315 4.32302 15.2015C4.8047 14.7716 5.47211 14.6972 6.03633 15.0103C6.84919 15.4615 7.70887 15.8586 8.6073 16.196C8.92238 16.3143 9.24651 16.2733 9.52284 16.0806C9.79916 15.8879 9.95066 15.5976 9.95066 15.2592V4.00005C9.95066 1.24989 7.71188 0 4.97532 0C2.23927 0 0 1.2509 0 4.00005V35.9994C0 38.7491 2.23877 39.9995 4.97532 39.9995C7.71188 39.9995 9.95066 38.7496 9.95066 35.9994V28.9058C11.8235 29.616 13.8403 29.9994 15.9205 29.9994C18.0013 29.9994 20.0181 29.6164 21.8909 28.9063V35.9999L21.8899 35.9994ZM52.3046 23.9993C51.9483 20.7529 50.6019 18.9997 47.7607 18.9997C44.9199 18.9997 43.5735 20.7534 43.2172 23.9993H52.3046ZM33.8302 25.9998C33.8302 17.0822 39.5616 12.0001 47.7607 12.0001C55.9598 12.0001 61.6911 17.0827 61.6911 25.9998C61.6911 26.3777 61.6805 26.7489 61.6604 27.1126C61.6005 28.1728 60.7302 28.9994 59.6738 28.9994C47.6862 28.9994 53.6888 28.9994 43.3677 28.9994C43.8821 31.6049 45.2269 32.9999 47.7607 32.9999C49.6028 32.9999 51.2869 32.5836 52.7521 31.7814C57.0328 29.4359 60.2949 34.2301 57.279 36.8194C54.861 38.8973 51.5788 40 47.7607 40C39.5616 40 33.8302 34.918 33.8302 26.0003V25.9998ZM94.1955 25.9998C94.1955 21.4788 92.9307 18.9997 89.5519 18.9997C86.1736 18.9997 84.9088 21.4788 84.9088 25.9998C84.9088 30.5204 86.1736 32.9994 89.5519 32.9994C92.9302 32.9994 94.1955 30.5204 94.1955 25.9998ZM75.6215 25.9998C75.6215 17.0822 81.3528 12.0001 89.5519 12.0001C97.751 12.0001 103.482 17.0827 103.482 25.9998C103.482 34.9175 97.751 39.9995 89.5519 39.9995C81.3528 39.9995 75.6215 34.9175 75.6215 25.9998ZM124.047 25.9998C124.047 21.4788 122.781 18.9997 119.403 18.9997C116.025 18.9997 114.759 21.4788 114.759 25.9998C114.759 30.5204 116.024 32.9994 119.403 32.9994C122.781 32.9994 124.047 30.5204 124.047 25.9998ZM105.472 25.9998C105.472 17.0822 111.204 12.0001 119.403 12.0001C127.602 12.0001 133.333 17.0827 133.333 25.9998C133.333 34.9175 127.602 39.9995 119.403 39.9995C111.204 39.9995 105.472 34.9175 105.472 25.9998Z" fill="#00A0E6"/>
</svg>
